<svg width="60" height="60" viewBox="0 0 60 60" fill="none" xmlns="http://www.w3.org/2000/svg">
<g clip-path="url(#clip0_89_157)">
<path d="M30.0001 59.16C46.1047 59.16 59.1601 46.1046 59.1601 30C59.1601 13.8954 46.1047 0.839996 30.0001 0.839996C13.8955 0.839996 0.840088 13.8954 0.840088 30C0.840088 46.1046 13.8955 59.16 30.0001 59.16Z" fill="url(#paint0_linear_89_157)"/>
<path d="M33.4505 19.0008L33.5165 15.7269L31.0832 15.3009L33.2195 30.495L33.2615 40.2444C28.7162 41.8326 22.1951 44.1243 22.1951 44.1243L29.7029 48.1854L33.2867 46.1391L43.2329 40.4598L41.7275 37.4289L33.4505 19.0008Z" fill="#22627F"/>
<path d="M41.7273 37.4286L33.4503 19.0008L33.219 30.495L33.261 40.2444C33.8742 40.0302 34.4517 39.8286 34.9719 39.6474C39.3501 38.1219 41.7273 37.4286 41.7273 37.4286Z" fill="#3879A4"/>
<path d="M41.7273 37.4286L33.4503 19.0008L33.5163 15.7269L31.083 15.3009L33.2193 30.495L33.2613 40.2444C33.8745 40.0302 34.452 39.8286 34.9722 39.6474C39.3501 38.1219 41.7273 37.4286 41.7273 37.4286Z" fill="#3E6F9E"/>
<path d="M22.7371 11.5293C21.0931 13.1076 19.5712 14.5665 18.4708 15.618C18.241 15.8376 18.0241 16.0413 17.8174 16.2339L27.2167 9.8733L22.7371 11.5293Z" fill="#4E4A88"/>
<path d="M15.2605 18.6069C14.7307 19.1379 14.2249 19.7046 13.657 20.4516C12.1516 22.4325 7.75357 29.8413 6.88207 31.2876C6.01057 32.7336 5.81227 33.843 6.42637 35.6457C7.04047 37.4484 10.1704 44.3025 10.8439 46.0062C11.212 46.9371 11.3788 47.2647 11.9944 47.2992L17.0482 37.5183L15.2605 18.6069Z" fill="#32E5EB"/>
<path d="M15.7371 46.0854L20.4321 30.9705L17.0487 37.5183L11.9949 47.2992C12.5058 47.328 13.3257 47.1546 14.826 46.9569C18.1341 46.521 22.9875 45.6693 22.9875 45.6693L20.9274 44.4609L15.7371 46.0854Z" fill="url(#paint1_linear_89_157)"/>
<path d="M32.7138 17.3613L33.4503 19.0008L33.5163 15.7272L31.083 15.3012L33.219 30.4953L33.0309 27.3654L33.219 30.4953L33.4503 19.0008L32.7138 17.3613Z" fill="#414978"/>
<path d="M15.7373 46.0854L20.9273 44.4612L19.9367 43.8669L15.7373 46.0854Z" fill="#1FC2C7"/>
<path d="M33.287 46.1391L33.2615 40.2447C28.7162 41.8329 22.1951 44.1246 22.1951 44.1246L29.7029 48.1857L33.287 46.1391Z" fill="url(#paint2_linear_89_157)"/>
<path d="M43.2331 40.4595L41.7277 37.4286C41.7277 37.4286 39.3505 38.1219 34.9726 39.6474C34.4521 39.8286 33.8749 40.0302 33.2617 40.2444L33.2872 46.1388L43.2331 40.4595Z" fill="url(#paint3_linear_89_157)"/>
<path d="M56.6838 35.9232C56.6046 35.6061 55.9113 34.2393 54.6237 32.6547C53.3361 31.0698 49.9485 27.3852 47.3733 24.4734C44.7981 21.5613 42.2229 17.7183 39.9843 14.3505C37.7457 10.9827 34.5762 5.3172 33.3084 3.9306C32.8899 3.4728 32.508 3.2679 32.0688 3.3096C32.8983 3.4194 33.5238 4.2435 34.2726 5.3307C35.2368 6.7305 39.0468 13.1754 39.7995 14.2848C40.5522 15.3942 42.2559 17.9826 43.9332 20.3466C45.6105 22.7106 48.2781 25.7745 50.193 27.9006C52.1079 30.027 54.5115 32.853 55.3965 34.1208C56.2812 35.3886 56.4267 36.4188 56.4267 36.4188C56.4267 36.4188 48.8991 37.5414 47.037 37.8318C45.1749 38.1222 45.5316 39.1524 45.5316 39.1524L43.2336 40.4598L33.2874 46.1391L29.7036 48.1854L22.1958 44.1243L20.928 44.4612L22.9881 45.6696C22.9881 45.6696 28.6338 48.8787 30.0276 49.6713C31.4214 50.4639 33.9033 52.2663 35.4684 52.1277C37.0335 51.9891 37.3107 51.6126 39.2916 49.7901C41.2725 47.9676 43.5507 45.531 44.7393 44.6793C45.9279 43.8276 48.1071 42.1635 49.5531 41.2917C50.9991 40.4202 54.5253 38.1816 55.4763 37.6467C56.4273 37.1118 56.763 36.24 56.6838 35.9232Z" fill="url(#paint4_linear_89_157)"/>
<path d="M33.2614 40.2444L33.2194 30.495L31.0831 15.3009L33.5164 15.7269L33.4504 19.0008L41.7274 37.4286L43.2328 40.4595L45.5308 39.1521C45.5308 39.1521 45.1741 38.1219 47.0362 37.8315C48.8983 37.5411 56.4259 36.4185 56.4259 36.4185C56.4259 36.4185 56.2807 35.3883 55.3957 34.1205C54.511 32.8527 52.1074 30.0264 50.1922 27.9003C48.2773 25.7742 45.6094 22.71 43.9324 20.3463C42.2551 17.9823 40.5514 15.3939 39.7987 14.2845C39.046 13.1751 35.2357 6.7305 34.2718 5.3304C33.523 4.2432 32.8978 3.4194 32.068 3.3093C31.1767 3.3939 30.0493 4.4949 27.8995 6.5652C26.2678 8.1363 24.4366 9.897 22.7362 11.5296L27.2161 9.8736L17.8174 16.2339C16.7689 17.2095 15.9916 17.8743 15.2605 18.6069L17.0485 37.5186L20.4319 30.9708L15.7369 46.0857L19.9366 43.8669L20.9272 44.4612L22.195 44.1243C22.195 44.1243 28.7161 41.8329 33.2614 40.2444Z" fill="url(#paint5_linear_89_157)"/>
<path d="M22.1951 44.1243L29.7029 48.1854L33.2867 46.1391L33.2612 40.2447C28.7162 41.8329 22.1951 44.1243 22.1951 44.1243Z" fill="url(#paint6_linear_89_157)"/>
<path d="M10.4761 46.6044L12.7681 50.3592L29.5201 15.2238L46.5382 50.3592L48.8788 46.6044L29.5618 7.18829L10.4761 46.6044Z" fill="#2F4668"/>
<path d="M10.4761 47.0208L12.8215 50.8635L29.9647 14.9073L47.3803 50.8635L49.7758 47.0208L30.0076 6.6843L10.4761 47.0208Z" fill="white"/>
<path d="M20.7952 38.7228H21.3103L21.6535 35.2695H21.7195L22.0366 38.7228H22.5913L22.1752 34.5231H21.178L20.7952 38.7228Z" fill="#FFFFFD"/>
<path d="M22.314 37.3758H21.1914V37.9173H22.314V37.3758Z" fill="#FFFFFD"/>
<path d="M36.3457 38.7228H36.8608L37.2043 35.2695H37.2703L37.5871 38.7228H38.1418L37.726 34.5231H36.7288L36.3457 38.7228Z" fill="#FFFFFD"/>
<path d="M37.8645 37.3758H36.7419V37.9173H37.8645V37.3758Z" fill="#FFFFFD"/>
<path d="M23.4825 36.5967V38.7228H22.8948V34.5231H23.6013L24.0042 36.3921H24.0768V34.4835H24.6051V38.7228H24.0042L23.4825 36.5967Z" fill="#FFFFFD"/>
<path d="M24.9026 34.5231H25.4372L25.7741 36.4119H25.8467L26.1638 34.5231H26.7383L26.1308 37.0524V38.7228H25.5299V37.0656L24.9026 34.5231Z" fill="#FFFFFD"/>
<path d="M28.1782 34.5231H26.9626V38.7228H28.1782C28.3822 38.7228 28.5475 38.5575 28.5475 38.3535V34.8924C28.5475 34.6887 28.3819 34.5231 28.1782 34.5231ZM27.9532 38.1747H27.5239V35.0514H27.9532V38.1747Z" fill="#FFFFFD"/>
<path d="M29.5445 38.1747V35.1042H30.3767V34.5231H28.9832V38.7228H30.3767V38.1747H29.5445Z" fill="#FFFFFD"/>
<path d="M30.1122 36.207H29.4519V36.7551H30.1122V36.207Z" fill="#FFFFFD"/>
<path d="M31.3535 36.4812V38.7228H30.7856V34.5231H31.3535L31.9412 36.5373H32.0402L32.6147 34.5231H33.176V38.7228H32.6411V36.4812L32.2253 37.8777H31.7894L31.3535 36.4812Z" fill="#FFFFFD"/>
<path d="M34.9512 34.5231H33.9102C33.7674 34.5231 33.6516 34.6389 33.6516 34.7817V38.4639C33.6516 38.6067 33.7674 38.7225 33.9102 38.7225H34.9512C35.094 38.7225 35.2098 38.6067 35.2098 38.4639V34.782C35.2101 34.6389 35.0943 34.5231 34.9512 34.5231ZM34.6488 38.1615H34.2195V35.0646H34.6488V38.1615Z" fill="#FFFFFD"/>
<path d="M39.0467 34.5231H38.4788V38.7228H39.0467V34.5231Z" fill="#FFFFFD"/>
<path d="M36.085 38.1615H35.5237V38.7228H36.085V38.1615Z" fill="#FFFFFD"/>
</g>
<defs>
<linearGradient id="paint0_linear_89_157" x1="29.9604" y1="0.840023" x2="30.0396" y2="59.0015" gradientUnits="userSpaceOnUse">
<stop stop-color="#3B343F"/>
<stop offset="0.8303" stop-color="#1D1F27"/>
</linearGradient>
<linearGradient id="paint1_linear_89_157" x1="11.9945" y1="39.1366" x2="22.9873" y2="39.1366" gradientUnits="userSpaceOnUse">
<stop offset="0.0146" stop-color="#23AFB7"/>
<stop offset="0.7947" stop-color="#169AA4"/>
</linearGradient>
<linearGradient id="paint2_linear_89_157" x1="22.1951" y1="44.2149" x2="33.2869" y2="44.2149" gradientUnits="userSpaceOnUse">
<stop offset="0.1169" stop-color="#19A7AD"/>
<stop offset="0.7978" stop-color="#1D8093"/>
</linearGradient>
<linearGradient id="paint3_linear_89_157" x1="33.2613" y1="41.7838" x2="43.2331" y2="41.7838" gradientUnits="userSpaceOnUse">
<stop offset="0.2429" stop-color="#206983"/>
<stop offset="0.7978" stop-color="#2F5377"/>
</linearGradient>
<linearGradient id="paint4_linear_89_157" x1="17.3306" y1="39.1291" x2="46.026" y2="19.7738" gradientUnits="userSpaceOnUse">
<stop offset="0.0775" stop-color="#2DF1E6"/>
<stop offset="0.4923" stop-color="#3694B0"/>
<stop offset="0.524" stop-color="#468DB3"/>
<stop offset="0.6154" stop-color="#6F79BA"/>
<stop offset="0.6984" stop-color="#8D6BBF"/>
<stop offset="0.7694" stop-color="#9F63C2"/>
<stop offset="0.8201" stop-color="#A660C3"/>
</linearGradient>
<linearGradient id="paint5_linear_89_157" x1="47.1983" y1="10.2701" x2="18.554" y2="53.767" gradientUnits="userSpaceOnUse">
<stop offset="0.0953" stop-color="#B843B7"/>
<stop offset="0.1261" stop-color="#A548B2"/>
<stop offset="0.2011" stop-color="#7D51A9"/>
<stop offset="0.2696" stop-color="#6058A2"/>
<stop offset="0.3286" stop-color="#4E5C9E"/>
<stop offset="0.3716" stop-color="#485E9C"/>
<stop offset="0.5353" stop-color="#4393BB"/>
<stop offset="0.7978" stop-color="#39EEF2"/>
</linearGradient>
<linearGradient id="paint6_linear_89_157" x1="27.6507" y1="40.8974" x2="28.0469" y2="47.4743" gradientUnits="userSpaceOnUse">
<stop offset="0.0983" stop-color="#227F97"/>
<stop offset="0.8303" stop-color="#18ABAE"/>
</linearGradient>
<clipPath id="clip0_89_157">
<rect width="60" height="60" fill="white"/>
</clipPath>
</defs>
</svg>
